<?xml version="1.0" standalone="no"?>
<!DOCTYPE svg PUBLIC "-//W3C//DTD SVG 20010904//EN"
 "http://www.w3.org/TR/2001/REC-SVG-20010904/DTD/svg10.dtd">
<svg version="1.0" xmlns="http://www.w3.org/2000/svg"
 width="300.000000pt" height="300.000000pt" viewBox="0 0 300.000000 300.000000"
 preserveAspectRatio="xMidYMid meet">
<metadata>
Created by potrace 1.11, written by Peter Selinger 2001-2013
</metadata>
<g transform="translate(0.000000,300.000000) scale(0.100000,-0.100000)"
fill="#000000" stroke="none">
<path d="M1500 2881 c0 -28 -4 -53 -10 -56 -5 -3 -7 -20 -3 -36 6 -29 -3 -40
-143 -181 -82 -82 -166 -163 -186 -179 l-37 -30 -16 31 c-9 17 -20 28 -26 25
-5 -4 -8 -1 -7 7 3 14 -162 32 -221 24 -18 -3 -68 -1 -110 5 -54 7 -99 6 -159
-2 -78 -12 -81 -13 -66 -30 9 -10 22 -15 29 -13 29 12 50 -157 23 -184 -9 -9
-9 -15 0 -24 8 -8 12 -66 12 -193 l0 -182 -173 -165 c-94 -91 -186 -178 -203
-194 -37 -35 -46 -57 -31 -74 9 -10 9 -11 0 -6 -9 5 -13 -1 -13 -18 0 -19 5
-26 20 -26 13 0 33 -20 57 -56 27 -40 55 -66 96 -90 32 -19 56 -30 52 -24 -17
28 17 4 69 -49 55 -55 60 -58 90 -50 17 5 32 9 33 9 2 0 3 -117 3 -259 l0
-260 -60 -58 c-33 -32 -60 -61 -60 -64 0 -4 136 -6 301 -5 l302 2 23 27 c13
15 26 22 29 17 4 -6 11 -7 17 -4 6 4 8 3 5 -3 -3 -5 25 -40 63 -78 38 -38 66
-73 63 -79 -3 -6 -3 -8 2 -4 4 4 14 3 21 -2 6 -6 16 -10 20 -9 19 4 45 -15 81
-59 21 -25 32 -42 25 -38 -11 7 -11 4 0 -13 21 -34 85 -74 105 -67 11 5 14 10
7 14 -6 4 -13 16 -16 27 -4 15 37 61 181 202 l186 183 275 3 275 2 3 267 2
267 191 183 190 183 -191 185 -190 185 -1 187 -1 186 -96 -2 c-53 -2 -110 -8
-126 -15 -16 -6 -35 -10 -43 -7 -16 7 -17 -16 -2 -31 9 -9 24 -6 62 13 80 41
80 24 4 -133 -103 -215 -576 -1296 -704 -1610 -14 -35 -29 -60 -34 -57 -13 8
-56 103 -164 364 -51 124 -129 313 -173 420 -44 107 -135 320 -201 473 -67
153 -121 280 -121 283 0 2 -29 63 -65 135 -36 71 -64 135 -62 142 1 7 -11 13
-28 15 -58 5 -95 13 -95 21 0 4 156 9 346 9 223 1 344 -2 342 -8 -2 -5 -54
-12 -116 -14 -63 -2 -115 -6 -118 -8 -13 -13 199 -555 418 -1073 76 -180 109
-284 98 -305 -6 -10 -10 -30 -10 -45 0 -25 1 -25 29 -10 17 8 33 20 37 26 4 7
3 9 -3 6 -12 -8 -24 38 -13 50 9 10 167 401 255 633 144 376 252 696 239 709
-9 10 -188 20 -199 11 -9 -8 -14 -4 -18 11 -6 21 -4 21 71 16 103 -8 419 -8
460 0 l33 5 -2 71 c-2 58 1 72 16 83 10 7 22 11 26 8 5 -3 9 1 9 9 0 8 17 30
38 48 20 18 28 29 17 24 -53 -22 -346 -22 -501 1 -26 4 -44 2 -48 -5 -13 -20
-41 -11 -53 17 -7 15 -40 50 -74 77 -34 28 -102 93 -153 146 -50 53 -117 117
-148 142 l-58 47 0 -49z m40 -46 c7 -8 9 -15 5 -15 -5 0 0 -9 9 -19 10 -10 14
-21 9 -23 -4 -3 -3 -4 3 -2 7 1 27 -14 45 -33 19 -20 28 -33 22 -29 -17 9 -16
6 6 -47 14 -32 31 -51 64 -70 63 -37 77 -34 37 8 -19 19 -32 35 -29 35 3 0 25
-21 49 -47 25 -26 36 -40 25 -32 -18 13 -19 13 -6 -3 7 -10 18 -15 23 -12 5 4
31 -15 58 -41 45 -44 47 -49 37 -76 -6 -16 -14 -28 -18 -27 -4 2 -89 83 -189
181 l-182 178 15 31 c14 29 14 33 -1 45 -9 7 -12 13 -6 13 6 0 17 -7 24 -15z
m-542 -382 c-10 -2 -26 -2 -35 0 -10 3 -2 5 17 5 19 0 27 -2 18 -5z m1374 0
c-40 -2 -103 -2 -140 0 -37 2 -4 3 73 3 77 0 107 -2 67 -3z m-2146 -1075 l29
-33 -32 29 c-18 17 -33 31 -33 33 0 8 8 1 36 -29z m838 -790 l51 -1 -65 -7
c-36 -4 -121 -5 -190 -1 l-125 6 110 6 c61 3 123 4 139 2 16 -1 52 -4 80 -5z
m-381 -5 c-7 -2 -21 -2 -30 0 -10 3 -4 5 12 5 17 0 24 -2 18 -5z"/>
<path d="M511 2244 c0 -11 3 -14 6 -6 3 7 2 16 -1 19 -3 4 -6 -2 -5 -13z"/>
<path d="M742 2228 c3 -7 155 -108 164 -108 3 0 29 25 58 55 28 30 51 55 49
55 -11 0 -53 -25 -53 -32 0 -5 -10 -2 -22 6 -12 9 -36 16 -54 16 -17 0 -34 3
-37 6 -9 9 -108 11 -105 2z"/>
<path d="M2531 1901 c-8 -14 -7 -22 4 -31 8 -7 13 -15 10 -19 -7 -12 110 -122
120 -114 4 5 5 3 2 -3 -4 -6 3 -20 16 -30 18 -16 19 -16 8 -1 -10 12 -10 17
-2 17 12 0 84 -69 173 -166 35 -39 55 -53 81 -56 l35 -4 -33 38 c-39 46 -391
388 -399 388 -3 0 -10 -9 -15 -19z"/>
<path d="M997 1865 c6 -47 44 -135 73 -172 11 -14 20 -24 20 -21 0 8 -77 194
-88 214 -9 15 -10 11 -5 -21z"/>
<path d="M375 1758 l-40 -43 43 40 c39 36 47 45 39 45 -2 0 -21 -19 -42 -42z"/>
<path d="M1916 1555 c-9 -26 -7 -32 5 -12 6 10 9 21 6 23 -2 3 -7 -2 -11 -11z"/>
<path d="M125 1511 c-3 -12 -10 -19 -15 -16 -14 8 -22 -13 -12 -31 7 -13 12
-9 26 21 10 20 15 39 13 42 -3 2 -8 -5 -12 -16z"/>
<path d="M2779 1393 l-24 -28 28 24 c15 14 27 26 27 28 0 8 -8 1 -31 -24z"/>
<path d="M2669 1283 l-34 -38 38 34 c20 19 37 36 37 38 0 8 -8 0 -41 -34z"/>
<path d="M450 1143 c0 -5 7 -18 15 -29 12 -16 14 -16 15 -3 0 9 -7 22 -15 29
-8 7 -15 8 -15 3z"/>
<path d="M512 1005 c0 -16 2 -22 5 -12 2 9 2 23 0 30 -3 6 -5 -1 -5 -18z"/>
<path d="M1933 573 c-25 -5 -29 -24 -13 -70 l11 -30 309 1 c171 1 310 2 310 3
0 2 -17 18 -37 37 -30 27 -44 34 -68 30 -16 -2 -24 -2 -18 2 10 4 9 9 -2 21
-13 12 -26 13 -88 3 -39 -7 -103 -9 -142 -6 -120 10 -239 14 -262 9z m304 -30
c-20 -2 -52 -2 -70 0 -17 2 0 4 38 4 39 0 53 -2 32 -4z"/>
<path d="M1639 283 l-24 -28 28 24 c15 14 27 26 27 28 0 8 -8 1 -31 -24z"/>
<path d="M1484 142 c-9 -5 -8 -11 2 -20 12 -11 14 -9 14 8 0 22 0 23 -16 12z"/>
</g>
</svg>
